<!-- icon666.com - MILLIONS vector ICONS FREE --><svg xmlns="http://www.w3.org/2000/svg" viewBox="0 0 60 60"><g id="Outer_Lines" data-name="Outer Lines"><path d="M2,60c.051,0,.1,0,.155-.006l7.66-.6h0a1.985,1.985,0,0,0,1.248-.579l4.973-4.88,12.735,5.792A2.947,2.947,0,0,0,30.018,60a2.653,2.653,0,0,0,1.133-.247l15.034-5.642C50.713,52.113,54,46.6,54,41V14.13a6.886,6.886,0,0,0,3.951-2.011,7.162,7.162,0,0,0,0-10.026,6.91,6.91,0,0,0-9.906,0A7.05,7.05,0,0,0,46.69,4.043C41.615,3.263,35.079,2,31.164.241a2.984,2.984,0,0,0-2.343.007c-5.644,2.529-16.882,4.037-20.2,4.44A3.033,3.033,0,0,0,6,7.7V42a13.05,13.05,0,0,0,.15,1.881L1.171,48.767A2.02,2.02,0,0,0,.6,50.035L.006,57.827a2.022,2.022,0,0,0,.588,1.588A1.993,1.993,0,0,0,2,60Zm43.429-7.733L30.375,57.915a.883.883,0,0,1-.761-.005L17.57,52.433l1.317-1.292,10.325,4.351a2.062,2.062,0,0,0,.8.162,1.889,1.889,0,0,0,.737-.146L44.6,50.385C48.105,48.833,50,44.392,50,41V38.24h-.014a5.142,5.142,0,0,0,0-1.252H50V16.316l1.951-2.192.049.007V41C52,45.765,49.152,50.616,45.429,52.264ZM32.834,26.614l1.192,1.212L9.772,51.525a1,1,0,0,1-1.4,0,1.054,1.054,0,0,1-.015-1.461L32.6,26.375ZM15,12.03a1,1,0,0,0-1,1V36.177L12,38.14l0-27.77c5.377-.749,12.868-2.061,17.982-4.057a76.362,76.362,0,0,0,14.339,3.5L34.066,19.253l-7.515-7.646a4.957,4.957,0,0,0-3.545-1.486H23a4.936,4.936,0,0,0-3.534,1.491,5.142,5.142,0,0,0,0,7.158A4.929,4.929,0,0,0,23,20.258h.007a4.929,4.929,0,0,0,2.761-.838l2.606,2.651L16,34.214V13.03A1,1,0,0,0,15,12.03ZM47.168,39.785a2.971,2.971,0,0,1-2.122.893h0a2.952,2.952,0,0,1-2.109-.892,3.128,3.128,0,0,1,0-4.356,1,1,0,0,0,0-1.4L26.553,17.367a1,1,0,0,0-.712-.3h0a1,1,0,0,0-.711.3,2.97,2.97,0,0,1-2.123.894h0a2.943,2.943,0,0,1-2.109-.891,3.128,3.128,0,0,1,0-4.355A2.951,2.951,0,0,1,23,12.121h0a2.968,2.968,0,0,1,2.121.891L33.3,21.328c.006.006.008.015.013.021L38.972,27.1c.006.006.015.008.021.014l8.172,8.313A3.127,3.127,0,0,1,47.168,39.785ZM42.773,13.954l3.491,3.551-3.153,3.543L39.29,17.161Zm-4.954,4.563,3.959,4.028-2.126,2.389L35.469,20.68ZM48,33.426l-6.943-7.062L48,18.563Zm-.4-17.418L44.245,12.6l2.5-2.3a7.057,7.057,0,0,0,3.121,3.161ZM40.887,34.8a5.145,5.145,0,0,0,.62,6.387,4.931,4.931,0,0,0,3.531,1.49h.008a4.925,4.925,0,0,0,2.916-.965c-.245,2.628-1.788,5.787-4.118,6.819L29.988,53.648l-9.554-4.026L38.26,32.128ZM49.473,3.493a4.907,4.907,0,0,1,7.052,0,5.153,5.153,0,0,1,0,7.219l0,0a4.907,4.907,0,0,1-7.052,0A5.156,5.156,0,0,1,49.473,3.493ZM8,42V7.7a1.026,1.026,0,0,1,.871-1.027C13.2,6.146,23.9,4.645,29.624,2.08a.95.95,0,0,1,.736-.008c4.024,1.809,10.576,3.1,15.735,3.9a7.225,7.225,0,0,0-.025,2.092A79.09,79.09,0,0,1,30.718,4.454,1.879,1.879,0,0,0,29.3,4.447c-4.976,1.928-12.3,3.208-17.561,3.94a2,2,0,0,0-1.738,2V40.1l-2,1.96C8,42.041,8,42.021,8,42ZM2.583,50.184,15.7,37.314l.018-.017L29.773,23.5,31.2,24.948,6.944,48.648a3.067,3.067,0,0,0,0,4.28h0a2.976,2.976,0,0,0,4.24.013L35.428,29.252,36.855,30.7,9.656,57.4h0L2,57.978Z"></path><path d="M51.584,6.667a1,1,0,0,0,.714-.3.97.97,0,0,1,.7-.3h0a.976.976,0,0,1,.7.3,1,1,0,1,0,1.426-1.4A2.958,2.958,0,0,0,53,4.072h0a2.962,2.962,0,0,0-2.127.894,1,1,0,0,0,.714,1.7Z"></path></g></svg>